<svg width="19" height="16" viewBox="0 0 19 16" fill="none" xmlns="http://www.w3.org/2000/svg">
<path fill-rule="evenodd" clip-rule="evenodd" d="M12.665 4.231L10.519 1.995C10.3864 1.84545 10.3168 1.65039 10.3247 1.45068C10.3327 1.25096 10.4176 1.06207 10.5617 0.923538C10.7058 0.785011 10.8979 0.707593 11.0977 0.707492C11.2976 0.707391 11.4898 0.784616 11.634 0.922997L14.729 4.147C14.7543 4.17333 14.7777 4.20139 14.799 4.231H16.739C16.9635 4.23102 17.1854 4.27993 17.3891 4.37432C17.5929 4.46871 17.7736 4.60633 17.9188 4.77761C18.064 4.94889 18.1702 5.14972 18.23 5.36617C18.2898 5.58261 18.3017 5.80947 18.265 6.031L17.083 13.12C16.9926 13.6618 16.713 14.154 16.2938 14.509C15.8747 14.864 15.3433 15.0589 14.794 15.059H3.491C2.94172 15.0589 2.41026 14.864 1.99114 14.509C1.57202 14.154 1.2924 13.6618 1.202 13.12L0.0189973 6.033C-0.0177256 5.81147 -0.00578376 5.58461 0.0539933 5.36817C0.11377 5.15172 0.21995 4.95089 0.365156 4.77961C0.510362 4.60833 0.691114 4.47071 0.894858 4.37632C1.0986 4.28193 1.32045 4.23302 1.545 4.233H3.486C3.50734 4.2034 3.53073 4.17533 3.556 4.149L6.651 0.922997C6.72061 0.846595 6.80482 0.78491 6.89866 0.741581C6.9925 0.698252 7.09407 0.674156 7.19737 0.670717C7.30067 0.667277 7.40362 0.684563 7.50013 0.721554C7.59664 0.758545 7.68477 0.814492 7.75931 0.886094C7.83385 0.957696 7.8933 1.0435 7.93414 1.13845C7.97498 1.2334 7.99639 1.33557 7.99711 1.43892C7.99782 1.54228 7.97783 1.64474 7.93831 1.74024C7.89879 1.83575 7.84054 1.92237 7.767 1.995L5.619 4.231H12.665ZM9.143 7.325C9.34828 7.325 9.54515 7.40654 9.6903 7.5517C9.83545 7.69685 9.917 7.89372 9.917 8.099V11.193C9.92073 11.2969 9.90349 11.4005 9.8663 11.4976C9.82911 11.5947 9.77274 11.6834 9.70055 11.7582C9.62835 11.833 9.54182 11.8926 9.44611 11.9332C9.3504 11.9739 9.24748 11.9948 9.1435 11.9948C9.03951 11.9948 8.93659 11.9739 8.84089 11.9332C8.74518 11.8926 8.65864 11.833 8.58645 11.7582C8.51425 11.6834 8.45788 11.5947 8.42069 11.4976C8.3835 11.4005 8.36626 11.2969 8.37 11.193V8.099C8.37 7.89389 8.45141 7.69717 8.59634 7.55205C8.74128 7.40693 8.93789 7.32526 9.143 7.325ZM5.275 7.325C5.48027 7.325 5.67715 7.40654 5.8223 7.5517C5.96745 7.69685 6.049 7.89372 6.049 8.099V11.193C6.05273 11.2969 6.03549 11.4005 5.9983 11.4976C5.96112 11.5947 5.90474 11.6834 5.83255 11.7582C5.76035 11.833 5.67382 11.8926 5.57811 11.9332C5.4824 11.9739 5.37948 11.9948 5.2755 11.9948C5.17151 11.9948 5.06859 11.9739 4.97289 11.9332C4.87718 11.8926 4.79064 11.833 4.71845 11.7582C4.64625 11.6834 4.58988 11.5947 4.55269 11.4976C4.5155 11.4005 4.49826 11.2969 4.502 11.193V8.099C4.502 7.89389 4.58341 7.69717 4.72834 7.55205C4.87328 7.40693 5.06989 7.32526 5.275 7.325ZM13.011 7.325C13.2163 7.325 13.4131 7.40654 13.5583 7.5517C13.7035 7.69685 13.785 7.89372 13.785 8.099V11.193C13.7887 11.2969 13.7715 11.4005 13.7343 11.4976C13.6971 11.5947 13.6407 11.6834 13.5685 11.7582C13.4964 11.833 13.4098 11.8926 13.3141 11.9332C13.2184 11.9739 13.1155 11.9948 13.0115 11.9948C12.9075 11.9948 12.8046 11.9739 12.7089 11.9332C12.6132 11.8926 12.5266 11.833 12.4544 11.7582C12.3823 11.6834 12.3259 11.5947 12.2887 11.4976C12.2515 11.4005 12.2343 11.2969 12.238 11.193V8.099C12.238 7.89407 12.3193 7.6975 12.464 7.5524C12.6087 7.40731 12.8051 7.32553 13.01 7.325H13.011Z" fill="#999999"/>
</svg>
