<svg width="17" height="17" viewBox="0 0 17 17" fill="none" xmlns="http://www.w3.org/2000/svg">
<path fill-rule="evenodd" clip-rule="evenodd" d="M2.315 7.836L8.574 1.577C8.67749 1.47368 8.81776 1.41564 8.964 1.41564C9.11024 1.41564 9.25051 1.47368 9.354 1.577L12.831 5.054C12.8823 5.10518 12.923 5.16597 12.9507 5.23289C12.9785 5.29981 12.9928 5.37155 12.9928 5.444C12.9928 5.51645 12.9785 5.58819 12.9507 5.65511C12.923 5.72203 12.8823 5.78282 12.831 5.834L6.572 12.093C6.52082 12.1443 6.46003 12.185 6.39311 12.2127C6.32619 12.2405 6.25445 12.2548 6.182 12.2548C6.10955 12.2548 6.03781 12.2405 5.97089 12.2127C5.90397 12.185 5.84318 12.1443 5.792 12.093L2.315 8.616C2.26372 8.56482 2.22304 8.50403 2.19528 8.43711C2.16752 8.37019 2.15323 8.29845 2.15323 8.226C2.15323 8.15355 2.16752 8.08181 2.19528 8.01489C2.22304 7.94797 2.26372 7.88718 2.315 7.836ZM1.315 9.617C1.13231 9.43434 0.987392 9.21748 0.88852 8.97882C0.789647 8.74015 0.738758 8.48434 0.738758 8.226C0.738758 7.96766 0.789647 7.71185 0.88852 7.47318C0.987392 7.23451 1.13231 7.01765 1.315 6.835L7.573 0.575998C7.75566 0.393309 7.97251 0.24839 8.21118 0.149517C8.44985 0.050645 8.70566 -0.000244141 8.964 -0.000244141C9.22234 -0.000244141 9.47815 0.050645 9.71682 0.149517C9.95549 0.24839 10.1723 0.393309 10.355 0.575998L13.832 4.053C14.0147 4.23565 14.1596 4.45251 14.2585 4.69118C14.3574 4.92985 14.4082 5.18566 14.4082 5.444C14.4082 5.70234 14.3574 5.95815 14.2585 6.19682C14.1596 6.43548 14.0147 6.65234 13.832 6.835L12.59 8.077L15.376 10.863C15.8766 11.3636 16.1578 12.0425 16.1578 12.7505C16.1578 13.4584 15.8766 14.1374 15.376 14.638C14.8754 15.1386 14.1964 15.4198 13.4885 15.4198C12.7806 15.4198 12.1016 15.1386 11.601 14.638L8.815 11.852L7.573 13.094C7.39034 13.2767 7.17349 13.4216 6.93482 13.5205C6.69615 13.6194 6.44034 13.6702 6.182 13.6702C5.92366 13.6702 5.66785 13.6194 5.42918 13.5205C5.19051 13.4216 4.97366 13.2767 4.791 13.094L1.315 9.617ZM9.815 10.851L12.601 13.637C12.8378 13.8637 13.154 13.9886 13.4818 13.985C13.8096 13.9815 14.123 13.8496 14.3548 13.6178C14.5866 13.386 14.7185 13.0726 14.722 12.7448C14.7256 12.417 14.6007 12.1008 14.374 11.864L11.588 9.078L9.815 10.851Z" fill="#1C1C1C"/>
<path d="M0.908001 15.903H4.841" stroke="#07A996" stroke-width="1.5" stroke-linecap="round"/>
</svg>
