<svg width="21" height="18" viewBox="0 0 21 18" fill="none" xmlns="http://www.w3.org/2000/svg">
    <path
        d="M1.838 0.64795H20.354V2.59695H18.113L14.682 12.033C14.5448 12.4085 14.2957 12.7329 13.9683 12.9624C13.6408 13.1918 13.2508 13.3152 12.851 13.3159H4.763V11.368H12.851L13.56 9.41895H4.763C4.57147 9.41996 4.3839 9.36442 4.2238 9.25928C4.0637 9.15415 3.93819 9.00411 3.863 8.82795L0.942997 2.00595C0.879176 1.85782 0.85318 1.69615 0.867348 1.53548C0.881515 1.37481 0.935402 1.22019 1.02416 1.08551C1.11292 0.950839 1.23376 0.840342 1.37582 0.763962C1.51788 0.687583 1.6767 0.647717 1.838 0.64795Z"
        fill="black" />
    <path
        d="M12.279 17.0859C13.0356 17.0859 13.649 16.4726 13.649 15.7159C13.649 14.9593 13.0356 14.3459 12.279 14.3459C11.5224 14.3459 10.909 14.9593 10.909 15.7159C10.909 16.4726 11.5224 17.0859 12.279 17.0859Z"
        fill="black" />
    <path
        d="M5.88697 17.0859C6.6436 17.0859 7.25697 16.4726 7.25697 15.7159C7.25697 14.9593 6.6436 14.3459 5.88697 14.3459C5.13034 14.3459 4.51697 14.9593 4.51697 15.7159C4.51697 16.4726 5.13034 17.0859 5.88697 17.0859Z"
        fill="black" />
</svg>