<svg width="25" height="17" viewBox="0 0 25 17" fill="none" xmlns="http://www.w3.org/2000/svg">
<path d="M23.063 7.66113H18.031V13.5321H24.321C24.4321 13.5321 24.5387 13.488 24.6172 13.4094C24.6958 13.3308 24.74 13.2243 24.74 13.1131V9.33914C24.7401 9.11883 24.6968 8.90065 24.6126 8.69707C24.5284 8.49349 24.4049 8.30849 24.2491 8.15266C24.0934 7.99683 23.9085 7.87322 23.705 7.78888C23.5014 7.70454 23.2833 7.66113 23.063 7.66113Z" fill="#C7CFE2"/>
<path d="M18.031 8.50012H23.063C23.2855 8.50012 23.4989 8.58851 23.6562 8.74585C23.8136 8.90319 23.9019 9.11659 23.9019 9.33911V13.5321H18.031V8.50012Z" fill="#AFB9D2"/>
<path d="M23.869 13.5321C23.7654 12.837 23.4157 12.2022 22.8834 11.7434C22.3511 11.2845 21.6717 11.0321 20.969 11.0321C20.2662 11.0321 19.5868 11.2845 19.0545 11.7434C18.5223 12.2022 18.1725 12.837 18.069 13.5321H23.869Z" fill="#959CB5"/>
<path d="M21.3859 2.62903H18.0309V4.30603H22.4309C22.4866 4.30603 22.5401 4.2839 22.5794 4.24452C22.6188 4.20514 22.6409 4.15173 22.6409 4.09604V3.88603C22.6407 3.55308 22.5084 3.23382 22.2732 2.9982C22.0379 2.76258 21.7189 2.62982 21.3859 2.62903Z" fill="#C7CFE2"/>
<path d="M17.6119 0.955079H2.51194C2.40082 0.955079 2.29424 0.99922 2.21566 1.0778C2.13709 1.15638 2.09294 1.26295 2.09294 1.37408V9.75507H1.25394C1.14268 9.75507 1.03598 9.79927 0.957312 9.87795C0.87864 9.95662 0.834442 10.0633 0.834442 10.1746C0.834442 10.2858 0.87864 10.3925 0.957312 10.4712C1.03598 10.5499 1.14268 10.5941 1.25394 10.5941H3.76994C3.8812 10.5941 3.9879 10.6383 4.06657 10.7169C4.14525 10.7956 4.18944 10.9023 4.18944 11.0136C4.18944 11.1248 4.14525 11.2315 4.06657 11.3102C3.9879 11.3889 3.8812 11.4331 3.76994 11.4331H2.09694V13.1101C2.09694 13.2212 2.14109 13.3278 2.21967 13.4064C2.29824 13.4849 2.40482 13.5291 2.51594 13.5291H18.0319V1.37108C18.0311 1.2603 17.9865 1.15435 17.9078 1.07639C17.8291 0.998428 17.7227 0.954812 17.6119 0.955079Z" fill="#FFDC64"/>
<path d="M10.0639 10.177C12.1483 10.177 13.8379 8.48735 13.8379 6.40303C13.8379 4.31871 12.1483 2.62903 10.0639 2.62903C7.97962 2.62903 6.28995 4.31871 6.28995 6.40303C6.28995 8.48735 7.97962 10.177 10.0639 10.177Z" fill="#FFC850"/>
<path d="M8.62495 11.4351C8.17382 11.1607 7.65596 11.0156 7.12795 11.0156C6.59994 11.0156 6.08208 11.1607 5.63095 11.4351H0.418951C0.307692 11.4351 0.200991 11.4793 0.122319 11.558C0.0436479 11.6366 -0.000549316 11.7433 -0.000549316 11.8546C-0.000549316 11.9658 0.0436479 12.0725 0.122319 12.1512C0.200991 12.2299 0.307692 12.2741 0.418951 12.2741H2.09995V13.1131C2.09995 13.2242 2.1441 13.3308 2.22267 13.4094C2.30125 13.4879 2.40782 13.5321 2.51895 13.5321H18.031V11.4321L8.62495 11.4351Z" fill="#FFC850"/>
<path d="M20.967 16.0491C22.1251 16.0491 23.064 15.1102 23.064 13.9521C23.064 12.794 22.1251 11.8551 20.967 11.8551C19.8088 11.8551 18.87 12.794 18.87 13.9521C18.87 15.1102 19.8088 16.0491 20.967 16.0491Z" fill="#5B5D6E"/>
<path d="M7.12895 16.0491C8.28709 16.0491 9.22595 15.1102 9.22595 13.9521C9.22595 12.794 8.28709 11.8551 7.12895 11.8551C5.97081 11.8551 5.03195 12.794 5.03195 13.9521C5.03195 15.1102 5.97081 16.0491 7.12895 16.0491Z" fill="#5B5D6E"/>
<path d="M23.063 7.66212L22.224 4.30713H18.031V7.66212H23.063Z" fill="#B4E6FF"/>
<path d="M7.12894 15.2091C7.82372 15.2091 8.38694 14.6459 8.38694 13.9511C8.38694 13.2563 7.82372 12.6931 7.12894 12.6931C6.43417 12.6931 5.87094 13.2563 5.87094 13.9511C5.87094 14.6459 6.43417 15.2091 7.12894 15.2091Z" fill="#C7CFE2"/>
<path d="M10.0639 9.33802C11.6849 9.33802 12.9989 8.02397 12.9989 6.40302C12.9989 4.78206 11.6849 3.46802 10.0639 3.46802C8.44298 3.46802 7.12894 4.78206 7.12894 6.40302C7.12894 8.02397 8.44298 9.33802 10.0639 9.33802Z" fill="white"/>
<path d="M11.3219 8.08109C11.2663 8.0816 11.211 8.07097 11.1595 8.04985C11.108 8.02873 11.0612 7.99753 11.0219 7.95808L9.76394 6.70009C9.72458 6.66073 9.69343 6.61393 9.67231 6.56242C9.6512 6.51092 9.64054 6.45575 9.64094 6.40009V4.72308C9.64094 4.61183 9.68513 4.50512 9.7638 4.42645C9.84248 4.34778 9.94918 4.30359 10.0604 4.30359C10.1717 4.30359 10.2784 4.34778 10.3571 4.42645C10.4357 4.50512 10.4799 4.61183 10.4799 4.72308V6.22308L11.6149 7.35808C11.674 7.41686 11.7142 7.49193 11.7304 7.57368C11.7466 7.65544 11.7381 7.74017 11.7059 7.81703C11.6736 7.8939 11.6193 7.95941 11.5496 8.0052C11.48 8.05099 11.3983 8.07497 11.3149 8.07408L11.3219 8.08109Z" fill="#5B5D6E"/>
<path d="M7.12795 14.3701C7.35936 14.3701 7.54695 14.1825 7.54695 13.9511C7.54695 13.7197 7.35936 13.5321 7.12795 13.5321C6.89655 13.5321 6.70895 13.7197 6.70895 13.9511C6.70895 14.1825 6.89655 14.3701 7.12795 14.3701Z" fill="#7F8499"/>
<path d="M20.967 15.2091C21.6617 15.2091 22.225 14.6459 22.225 13.9511C22.225 13.2563 21.6617 12.6931 20.967 12.6931C20.2722 12.6931 19.709 13.2563 19.709 13.9511C19.709 14.6459 20.2722 15.2091 20.967 15.2091Z" fill="#C7CFE2"/>
<path d="M20.9659 14.3701C21.1973 14.3701 21.3849 14.1825 21.3849 13.9511C21.3849 13.7197 21.1973 13.5321 20.9659 13.5321C20.7345 13.5321 20.5469 13.7197 20.5469 13.9511C20.5469 14.1825 20.7345 14.3701 20.9659 14.3701Z" fill="#7F8499"/>
<path d="M19.7079 5.14613H22.4339L22.2239 4.30713H18.0309V7.66212H19.2889V5.56213C19.2897 5.45153 19.3342 5.34572 19.4127 5.26779C19.4912 5.18986 19.5973 5.14613 19.7079 5.14613Z" fill="#9BD6FF"/>
<path d="M18.031 3.46802H21.386C21.4971 3.46802 21.6037 3.51217 21.6823 3.59074C21.7608 3.66932 21.805 3.7759 21.805 3.88702V4.30602H18.031V3.46802Z" fill="#AFB9D2"/>
<path d="M24.7409 9.33911H23.4829V11.0161H24.7409V9.33911Z" fill="#F1F4FB"/>
<path d="M22.6439 9.33911V10.1781C22.6439 10.4006 22.7323 10.614 22.8897 10.7714C23.047 10.9287 23.2604 11.0171 23.4829 11.0171H23.9019V9.34012L22.6439 9.33911Z" fill="#FFC850"/>
<path d="M10.0639 6.8231C9.95282 6.8231 9.84626 6.77897 9.76768 6.70039C9.68911 6.62182 9.64496 6.51524 9.64496 6.40411V4.72711C9.64496 4.61599 9.68911 4.50941 9.76768 4.43083C9.84626 4.35225 9.95282 4.30811 10.0639 4.30811C10.1751 4.30811 10.2817 4.35225 10.3602 4.43083C10.4388 4.50941 10.483 4.61599 10.483 4.72711V6.40411C10.483 6.51524 10.4388 6.62182 10.3602 6.70039C10.2817 6.77897 10.1751 6.8231 10.0639 6.8231Z" fill="#464655"/>
</svg>
