<svg width="41" height="41" viewBox="0 0 41 41" fill="none" xmlns="http://www.w3.org/2000/svg">
<path d="M32.161 0.182129H8.16101C6.03928 0.182129 4.00444 1.02498 2.50415 2.52527C1.00386 4.02556 0.161011 6.0604 0.161011 8.18213V32.1821C0.161011 34.3039 1.00386 36.3387 2.50415 37.839C4.00444 39.3393 6.03928 40.1821 8.16101 40.1821H32.161C34.2827 40.1821 36.3176 39.3393 37.8178 37.839C39.3181 36.3387 40.161 34.3039 40.161 32.1821V8.18213C40.161 6.0604 39.3181 4.02556 37.8178 2.52527C36.3176 1.02498 34.2827 0.182129 32.161 0.182129Z" fill="#FDFDFD"/>
<path d="M32.161 0.682129H8.16101C6.17189 0.682129 4.26422 1.4723 2.8577 2.87883C1.45117 4.28535 0.661011 6.19301 0.661011 8.18213V32.1821C0.661011 34.1713 1.45117 36.0789 2.8577 37.4854C4.26422 38.892 6.17189 39.6821 8.16101 39.6821H32.161C34.1501 39.6821 36.0578 38.892 37.4643 37.4854C38.8708 36.0789 39.661 34.1713 39.661 32.1821V8.18213C39.661 6.19301 38.8708 4.28535 37.4643 2.87883C36.0578 1.4723 34.1501 0.682129 32.161 0.682129Z" stroke="#E9E9E9"/>
<path d="M13.819 22.5773L12.966 26.2573C12.9365 26.3921 12.9375 26.5317 12.969 26.666C13.0005 26.8002 13.0616 26.9258 13.148 27.0333C13.2342 27.1409 13.3435 27.2278 13.4677 27.2877C13.592 27.3476 13.728 27.3789 13.866 27.3793C13.9301 27.3858 13.9948 27.3858 14.059 27.3793L17.759 26.5263L24.873 19.4443L20.9 15.4863L13.819 22.5773Z" fill="black"/>
<path d="M27.1 15.9001L24.45 13.2521C24.276 13.0791 24.0405 12.9819 23.795 12.9819C23.5496 12.9819 23.3141 13.0791 23.14 13.2521L21.67 14.7241L25.633 18.6871L27.105 17.2151C27.1916 17.1289 27.2603 17.0265 27.3072 16.9136C27.354 16.8008 27.3781 16.6798 27.3781 16.5576C27.3781 16.4355 27.354 16.3145 27.3072 16.2017C27.2603 16.0888 27.1916 15.9864 27.105 15.9001H27.1Z" fill="black"/>
</svg>
