<svg width="14" height="15" viewBox="0 0 14 15" fill="none" xmlns="http://www.w3.org/2000/svg">
<path d="M3.187 4.918C3.21 3.34 3.327 2.445 3.927 1.845C4.673 1.099 5.873 1.099 8.278 1.099C10.683 1.099 11.878 1.099 12.624 1.845C13.37 2.591 13.37 3.791 13.37 6.191V8.737C13.37 11.137 13.37 12.337 12.624 13.083C11.878 13.829 10.678 13.829 8.278 13.829H7" stroke="#1C274C" stroke-linecap="round"/>
<path d="M0.634998 9.05601C0.554773 8.49276 0.629087 7.9183 0.849997 7.39401C0.942832 7.25511 1.0621 7.13584 1.201 7.04301C1.72529 6.8221 2.29975 6.74778 2.863 6.82801C3.42625 6.74778 4.00071 6.8221 4.525 7.04301C4.6639 7.13584 4.78316 7.25511 4.876 7.39401C5.09691 7.9183 5.17122 8.49276 5.091 9.05601V11.602C5.17122 12.1653 5.09691 12.7397 4.876 13.264C4.78316 13.4029 4.6639 13.5222 4.525 13.615C4.00052 13.8352 3.42606 13.9089 2.863 13.828C2.29975 13.9082 1.72529 13.8339 1.201 13.613C1.0621 13.5202 0.942832 13.4009 0.849997 13.262C0.629449 12.7383 0.555142 12.1646 0.634998 11.602V9.05601Z" stroke="#1C274C"/>
<path d="M10.183 11.92H7" stroke="#1C274C" stroke-linecap="round"/>
</svg>
