<svg width="18" height="19" viewBox="0 0 18 19" fill="none" xmlns="http://www.w3.org/2000/svg">
<path d="M8.913 0.86084C10.6733 0.86084 12.394 1.38282 13.8576 2.36076C15.3212 3.3387 16.4619 4.72869 17.1355 6.35496C17.8091 7.98122 17.9854 9.77071 17.642 11.4971C17.2986 13.2236 16.4509 14.8094 15.2063 16.0541C13.9616 17.2988 12.3757 18.1464 10.6493 18.4898C8.92287 18.8332 7.13338 18.657 5.50712 17.9834C3.88086 17.3097 2.49087 16.169 1.51292 14.7054C0.534976 13.2418 0.0130005 11.5211 0.0130005 9.76084C0.0130005 7.40041 0.950676 5.13666 2.61975 3.46759C4.28882 1.79852 6.55257 0.86084 8.913 0.86084ZM8.913 2.34484C7.44546 2.34484 6.01088 2.78002 4.79067 3.59534C3.57046 4.41066 2.61942 5.5695 2.05781 6.92533C1.49621 8.28116 1.34927 9.77307 1.63557 11.2124C1.92188 12.6517 2.62856 13.9739 3.66627 15.0116C4.70397 16.0493 6.02609 16.756 7.46543 17.0423C8.90477 17.3286 10.3967 17.1816 11.7525 16.62C13.1083 16.0584 14.2672 15.1074 15.0825 13.8872C15.8978 12.667 16.333 11.2324 16.333 9.76484C16.333 7.79693 15.5513 5.90963 14.1597 4.51811C12.7682 3.12659 10.8809 2.34484 8.913 2.34484ZM11.678 12.2378C11.8093 12.0912 11.9935 12.0027 12.19 11.9918C12.3865 11.9809 12.5793 12.0486 12.726 12.1798C12.8727 12.3111 12.9612 12.4953 12.972 12.6918C12.9829 12.8884 12.9153 13.0812 12.784 13.2278C12.2968 13.7724 11.7002 14.2081 11.0332 14.5063C10.3661 14.8046 9.64368 14.9587 8.913 14.9587C8.18232 14.9587 7.45985 14.8046 6.79282 14.5063C6.12578 14.2081 5.52918 13.7724 5.042 13.2278C4.977 13.1552 4.92693 13.0705 4.89467 12.9785C4.8624 12.8866 4.84857 12.7891 4.85395 12.6918C4.85934 12.5945 4.88384 12.4992 4.92606 12.4114C4.96827 12.3235 5.02738 12.2448 5.1 12.1798C5.17262 12.1148 5.25734 12.0648 5.3493 12.0325C5.44127 12.0002 5.5387 11.9864 5.63601 11.9918C5.73333 11.9972 5.82863 12.0217 5.91648 12.0639C6.00432 12.1061 6.083 12.1652 6.148 12.2378C6.49599 12.627 6.92219 12.9383 7.39874 13.1514C7.87529 13.3646 8.39146 13.4748 8.9135 13.4748C9.43554 13.4748 9.95171 13.3646 10.4283 13.1514C10.9048 12.9383 11.331 12.627 11.679 12.2378H11.678ZM6.32 7.16784C6.54013 7.16784 6.75532 7.23312 6.93835 7.35541C7.12138 7.47771 7.26404 7.65154 7.34828 7.85491C7.43252 8.05829 7.45456 8.28207 7.41161 8.49798C7.36867 8.71388 7.26267 8.91219 7.10701 9.06785C6.95135 9.22351 6.75304 9.32951 6.53714 9.37245C6.32124 9.4154 6.09745 9.39336 5.89407 9.30912C5.6907 9.22488 5.51687 9.08222 5.39457 8.89919C5.27228 8.71616 5.207 8.50097 5.207 8.28084C5.207 7.98565 5.32426 7.70256 5.53299 7.49383C5.74172 7.2851 6.02481 7.16784 6.32 7.16784ZM11.514 7.16784C11.7341 7.16784 11.9493 7.23312 12.1323 7.35541C12.3154 7.47771 12.458 7.65154 12.5423 7.85491C12.6265 8.05829 12.6486 8.28207 12.6056 8.49798C12.5627 8.71388 12.4567 8.91219 12.301 9.06785C12.1454 9.22351 11.947 9.32951 11.7311 9.37245C11.5152 9.4154 11.2914 9.39336 11.0881 9.30912C10.8847 9.22488 10.7109 9.08222 10.5886 8.89919C10.4663 8.71616 10.401 8.50097 10.401 8.28084C10.401 7.98583 10.5181 7.70288 10.7266 7.49418C10.9351 7.28548 11.218 7.16811 11.513 7.16784H11.514Z" fill="black"/>
</svg>
