<svg width="16" height="15" viewBox="0 0 16 15" fill="none" xmlns="http://www.w3.org/2000/svg">
<path d="M8.73201 2.153L8.50001 2.384L8.26801 2.152C7.87671 1.73905 7.40662 1.4087 6.88551 1.18046C6.3644 0.952217 5.80284 0.830717 5.23398 0.823132C4.66513 0.815548 4.10053 0.922034 3.57352 1.1363C3.04651 1.35057 2.56778 1.66827 2.16561 2.07064C1.76344 2.47302 1.44597 2.95191 1.23197 3.47902C1.01796 4.00614 0.91176 4.57079 0.919627 5.13964C0.927495 5.70849 1.04928 6.26999 1.27778 6.79099C1.50628 7.31198 1.83686 7.78191 2.25001 8.173L2.48201 8.405L8.50001 14.427L14.521 8.406L14.753 8.174C15.5514 7.37557 16 6.29266 16 5.1635C16 4.03435 15.5514 2.95144 14.753 2.153C13.9546 1.35457 12.8717 0.906014 11.7425 0.906014C10.6134 0.906014 9.53045 1.35457 8.73201 2.153Z" fill="#999999"/>
<path d="M8.73201 2.153L8.50001 2.384L8.26801 2.152C7.87671 1.73905 7.40662 1.4087 6.88551 1.18046C6.3644 0.952217 5.80284 0.830717 5.23398 0.823132C4.66513 0.815548 4.10053 0.922034 3.57352 1.1363C3.04651 1.35057 2.56778 1.66827 2.16561 2.07064C1.76344 2.47302 1.44597 2.95191 1.23197 3.47902C1.01796 4.00614 0.91176 4.57079 0.919627 5.13964C0.927495 5.70849 1.04928 6.26999 1.27778 6.79099C1.50628 7.31198 1.83686 7.78191 2.25001 8.173L2.48201 8.405L8.50001 14.427L14.521 8.406L14.753 8.174C15.5514 7.37557 16 6.29266 16 5.1635C16 4.03435 15.5514 2.95144 14.753 2.153C13.9546 1.35457 12.8717 0.906014 11.7425 0.906014C10.6134 0.906014 9.53045 1.35457 8.73201 2.153Z" fill="#999999"/>
</svg>
