<svg width="13" height="13" viewBox="0 0 13 13" fill="none" xmlns="http://www.w3.org/2000/svg">
<path d="M2.90898 0.751966V6.57197C2.28741 6.73011 1.73682 7.0921 1.34524 7.60006C0.953662 8.10802 0.743719 8.73262 0.74898 9.37397C0.754568 10.0116 0.968019 10.63 1.35694 11.1353C1.74586 11.6407 2.28902 12.0053 2.90398 12.174V12.246C2.90398 12.4365 2.97968 12.6193 3.11442 12.754C3.24917 12.8888 3.43192 12.9645 3.62248 12.9645C3.81304 12.9645 3.99579 12.8888 4.13054 12.754C4.26528 12.6193 4.34098 12.4365 4.34098 12.246V12.174C4.96129 12.015 5.5105 11.6529 5.90107 11.1454C6.29164 10.6379 6.50107 10.0143 6.49598 9.37397C6.49131 8.73702 6.27922 8.11895 5.89181 7.61335C5.5044 7.10775 4.96278 6.74217 4.34898 6.57197V0.751966C4.34898 0.561408 4.27328 0.378654 4.13854 0.243909C4.00379 0.109165 3.82104 0.0334656 3.63048 0.0334656C3.43992 0.0334656 3.25717 0.109165 3.12242 0.243909C2.98768 0.378654 2.91198 0.561408 2.91198 0.751966H2.90898ZM5.06398 9.37397C5.06339 9.65809 4.97858 9.93567 4.82027 10.1716C4.66197 10.4075 4.43728 10.5913 4.17459 10.6995C3.9119 10.8078 3.62301 10.8358 3.34443 10.7799C3.06585 10.724 2.81009 10.5869 2.60946 10.3857C2.40883 10.1845 2.27235 9.92833 2.21725 9.6496C2.16216 9.37086 2.19094 9.08205 2.29994 8.81967C2.40895 8.55728 2.59329 8.3331 2.82967 8.17545C3.06605 8.0178 3.34385 7.93377 3.62798 7.93397C4.00912 7.93529 4.37421 8.08755 4.64334 8.35743C4.91247 8.62731 5.06372 8.99283 5.06398 9.37397ZM8.65698 0.751966V0.823966C8.03667 0.982975 7.48746 1.34508 7.09689 1.85254C6.70632 2.36001 6.49689 2.98362 6.50198 3.62397C6.50757 4.2616 6.72102 4.88002 7.10994 5.38534C7.49886 5.89067 8.04202 6.25532 8.65698 6.42397V12.243C8.6513 12.3387 8.66598 12.4346 8.70006 12.5243C8.73413 12.614 8.78682 12.6954 8.85466 12.7633C8.9225 12.8311 9.00395 12.8838 9.09363 12.9179C9.18332 12.952 9.27921 12.9666 9.37498 12.961C9.47075 12.9666 9.56664 12.952 9.65632 12.9179C9.74601 12.8838 9.82746 12.8311 9.8953 12.7633C9.96314 12.6954 10.0158 12.614 10.0499 12.5243C10.084 12.4346 10.0987 12.3387 10.093 12.243V6.42797C10.7138 6.26906 11.2635 5.90675 11.6543 5.39885C12.0451 4.89096 12.2545 4.26678 12.249 3.62597C12.2438 2.98798 12.0306 2.36912 11.6416 1.86339C11.2527 1.35765 10.7093 0.9927 10.094 0.823966V0.751966C10.0997 0.656105 10.085 0.560127 10.0508 0.470368C10.0167 0.380609 9.96392 0.299111 9.89596 0.231255C9.82801 0.163399 9.74644 0.110728 9.65664 0.0767202C9.56683 0.0427118 9.47083 0.0281396 9.37498 0.0339657C9.27921 0.0282869 9.18332 0.0429683 9.09363 0.0770425C9.00395 0.111117 8.9225 0.16381 8.85466 0.23165C8.78682 0.299489 8.73413 0.380936 8.70006 0.470621C8.66598 0.560306 8.6513 0.656194 8.65698 0.751966ZM10.812 3.62597C10.812 3.91018 10.7277 4.18801 10.5698 4.42432C10.4119 4.66063 10.1875 4.84482 9.9249 4.95358C9.66232 5.06234 9.37339 5.0908 9.09463 5.03535C8.81588 4.97991 8.55983 4.84305 8.35887 4.64208C8.1579 4.44111 8.02104 4.18506 7.96559 3.90631C7.91014 3.62756 7.9386 3.33863 8.04736 3.07605C8.15613 2.81347 8.34031 2.58904 8.57662 2.43114C8.81294 2.27324 9.09077 2.18897 9.37498 2.18897C9.75577 2.19002 10.1207 2.34176 10.3899 2.61102C10.6592 2.88028 10.8109 3.24517 10.812 3.62597Z" fill="white"/>
</svg>
