<svg width="21" height="20" viewBox="0 0 21 20" fill="none" xmlns="http://www.w3.org/2000/svg">
<path d="M19.8 9.932C19.8 8.10569 19.2585 6.32039 18.2438 4.80187C17.2292 3.28334 15.787 2.0998 14.0997 1.4009C12.4124 0.701999 10.5558 0.519135 8.76457 0.875431C6.97335 1.23173 5.32801 2.11118 4.03661 3.40258C2.74521 4.69398 1.86576 6.33932 1.50946 8.13054C1.15317 9.92176 1.33603 11.7784 2.03493 13.4657C2.73383 15.153 3.91738 16.5951 5.4359 17.6098C6.95442 18.6244 8.73972 19.166 10.566 19.166C11.7787 19.166 12.9794 18.9272 14.0997 18.4631C15.2201 17.9991 16.238 17.3189 17.0955 16.4614C17.9529 15.604 18.6331 14.586 19.0971 13.4657C19.5612 12.3454 19.8 11.1446 19.8 9.932ZM17.888 9.009H15.183C15.0305 6.83727 14.2863 4.74876 13.031 2.97C14.3205 3.42797 15.4575 4.23511 16.3151 5.30142C17.1727 6.36774 17.7172 7.65131 17.888 9.009ZM7.86904 10.856H13.331C13.094 13.136 12.1217 15.2771 10.561 16.956C9.00001 15.2846 8.04868 13.1353 7.86104 10.856H7.86904ZM7.86904 9.009C8.08501 6.73849 9.03253 4.59954 10.569 2.914C12.1403 4.58306 13.1119 6.72721 13.331 9.009H7.86904ZM8.20104 2.942C6.93904 4.73068 6.18282 6.82661 6.01204 9.009H3.24304C3.41735 7.63454 3.97468 6.33681 4.85139 5.264C5.72809 4.19119 6.88883 3.38656 8.20104 2.942ZM3.24304 10.856H6.01304C6.16503 13.0366 6.91593 15.1329 8.18304 16.914C6.87543 16.4673 5.71933 15.6628 4.84608 14.592C3.97283 13.5211 3.41745 12.2267 3.24304 10.856ZM12.985 16.904C14.2494 15.1228 15.0094 13.0333 15.185 10.856H17.909C17.7342 12.2231 17.1804 13.514 16.3102 14.5828C15.4401 15.6516 14.2883 16.4556 12.985 16.904Z" fill="black" stroke="white"/>
</svg>
