<svg width="15" height="14" viewBox="0 0 15 14" fill="none" xmlns="http://www.w3.org/2000/svg">
<path d="M7.891 1.699L7.667 1.922L7.443 1.698C7.06099 1.31611 6.60749 1.01321 6.10842 0.806587C5.60934 0.599963 5.07445 0.493662 4.53429 0.493755C3.44339 0.493943 2.39725 0.927481 1.626 1.699C0.854751 2.47051 0.421573 3.5168 0.421761 4.6077C0.421948 5.6986 0.855486 6.74475 1.627 7.516L1.851 7.74L7.667 13.556L13.483 7.74L13.707 7.516C14.0984 7.13623 14.4103 6.68243 14.6247 6.18099C14.8391 5.67955 14.9516 5.14049 14.9557 4.59516C14.9598 4.04983 14.8554 3.50913 14.6486 3.00452C14.4418 2.49991 14.1368 2.04146 13.7512 1.65584C13.3655 1.27023 12.9071 0.965147 12.4025 0.758353C11.8979 0.551559 11.3572 0.44718 10.8118 0.451289C10.2665 0.455397 9.72744 0.567912 9.226 0.782287C8.72456 0.996661 8.27076 1.30761 7.891 1.699Z" fill="white"/>
<path d="M7.891 1.699L7.667 1.922L7.443 1.698C7.06099 1.31611 6.60749 1.01321 6.10842 0.806587C5.60934 0.599963 5.07445 0.493662 4.53429 0.493755C3.44339 0.493943 2.39725 0.927481 1.626 1.699C0.854751 2.47051 0.421573 3.5168 0.421761 4.6077C0.421948 5.6986 0.855486 6.74475 1.627 7.516L1.851 7.74L7.667 13.556L13.483 7.74L13.707 7.516C14.0984 7.13623 14.4103 6.68243 14.6247 6.18099C14.8391 5.67955 14.9516 5.14049 14.9557 4.59516C14.9598 4.04983 14.8554 3.50913 14.6486 3.00452C14.4418 2.49991 14.1368 2.04146 13.7512 1.65584C13.3655 1.27023 12.9071 0.965147 12.4025 0.758353C11.8979 0.551559 11.3572 0.44718 10.8118 0.451289C10.2665 0.455397 9.72744 0.567912 9.226 0.782287C8.72456 0.996661 8.27076 1.30761 7.891 1.699Z" fill="white"/>
</svg>
