<svg width="15" height="15" viewBox="0 0 15 15" fill="none" xmlns="http://www.w3.org/2000/svg">
<path d="M1.00001 7.681C0.884065 6.72576 0.998945 5.75665 1.33501 4.855C1.67001 4.243 2.28201 3.863 3.50501 3.099L4.80001 2.299C6.08901 1.499 6.73601 1.099 7.45101 1.099C8.16601 1.099 8.81201 1.499 10.106 2.299L11.4 3.099C12.624 3.858 13.236 4.238 13.571 4.85C13.9059 5.75369 14.0187 6.7246 13.9 7.681V8.662C13.9 11.178 13.9 12.436 13.144 13.218C12.388 14 11.172 14 8.74401 14H6.16101C3.72801 14 2.51201 14 1.76101 13.218C1.01001 12.436 1.00001 11.179 1.00001 8.662V7.681Z" stroke="#1C274C"/>
<path d="M9.38501 11.42H5.51501" stroke="#1C274C" stroke-linecap="round"/>
</svg>
