<svg width="7" height="11" viewBox="0 0 7 11" fill="none" xmlns="http://www.w3.org/2000/svg">
<path d="M0.935024 6.10537L5.36102 10.5314C5.45731 10.6036 5.57641 10.6386 5.69647 10.6301C5.81652 10.6216 5.92947 10.57 6.01458 10.4849C6.09968 10.3998 6.15124 10.2869 6.15977 10.1668C6.1683 10.0468 6.13324 9.92766 6.06102 9.83137L1.99002 5.75437L6.06403 1.68037C6.13624 1.58409 6.1713 1.46498 6.16277 1.34493C6.15423 1.22487 6.10268 1.11192 6.01758 1.02682C5.93247 0.941713 5.81953 0.890162 5.69947 0.88163C5.57942 0.873098 5.46031 0.908157 5.36403 0.980372L0.935024 5.40237C0.842506 5.49597 0.790619 5.62227 0.790619 5.75387C0.790619 5.88548 0.842506 6.01178 0.935024 6.10537Z" fill="black" stroke="black" stroke-width="0.5"/>
</svg>
