<svg width="17" height="16" viewBox="0 0 17 16" fill="none" xmlns="http://www.w3.org/2000/svg">
<path d="M9.239 -0.000488281H10.033V2.38251L12.416 7.94651V14.3025C12.416 14.7239 12.2486 15.1281 11.9506 15.4261C11.6526 15.7241 11.2484 15.8915 10.827 15.8915H4.472C4.01087 15.8692 3.56529 15.7178 3.18605 15.4545C2.8068 15.1912 2.50914 14.8267 2.327 14.4025L0.500001 9.53251V7.94651C0.499738 7.73767 0.540645 7.53083 0.620382 7.33781C0.700119 7.1448 0.817122 6.96939 0.964701 6.82163C1.11228 6.67386 1.28754 6.55664 1.48045 6.47666C1.67337 6.39668 1.88016 6.35551 2.089 6.35551H7.65V1.58851C7.65 1.16708 7.81741 0.762914 8.11541 0.464919C8.4134 0.166924 8.81757 -0.000488281 9.239 -0.000488281ZM14.006 7.94651H16.389V15.8915H14.006V7.94651Z" fill="#979797"/>
</svg>
