<svg width="19" height="19" viewBox="0 0 19 19" fill="none" xmlns="http://www.w3.org/2000/svg">
<path d="M9.48001 0.0490723C7.16325 0.0511706 4.93137 0.921355 3.22461 2.48799C1.51784 4.05462 0.460096 6.20396 0.26001 8.51207H8.61601L7.86601 7.76607C7.78398 7.69489 7.71742 7.60764 7.67045 7.50971C7.62348 7.41178 7.5971 7.30526 7.59295 7.19673C7.58879 7.0882 7.60695 6.97997 7.64629 6.87874C7.68563 6.7775 7.74532 6.68542 7.82168 6.60818C7.89803 6.53093 7.98942 6.47017 8.09019 6.42966C8.19096 6.38915 8.29897 6.36974 8.40754 6.37263C8.51611 6.37553 8.62293 6.40067 8.7214 6.4465C8.81987 6.49233 8.90788 6.55787 8.98001 6.63907L11.095 8.73907C11.1387 8.78213 11.1773 8.83012 11.21 8.88207C11.2317 8.91605 11.2505 8.95185 11.266 8.98907C11.266 8.99707 11.274 9.00107 11.274 9.00907C11.2909 9.05156 11.3043 9.09537 11.314 9.14007V9.14807C11.335 9.24698 11.335 9.34917 11.314 9.44807C11.3095 9.48914 11.2987 9.52927 11.282 9.56707C11.2784 9.58105 11.2731 9.59449 11.266 9.60707C11.2627 9.6167 11.2587 9.62606 11.254 9.63507C11.244 9.66045 11.2305 9.68434 11.214 9.70607C11.2048 9.72428 11.1941 9.74168 11.182 9.75807C11.1591 9.794 11.1327 9.82751 11.103 9.85807L11.095 9.86607L8.98001 11.9981C8.90735 12.0753 8.81992 12.1373 8.72291 12.1801C8.62589 12.223 8.52126 12.246 8.4152 12.2477C8.30915 12.2494 8.20382 12.2299 8.10547 12.1902C8.00711 12.1505 7.91772 12.0914 7.84258 12.0166C7.76744 11.9417 7.70809 11.8525 7.66803 11.7543C7.62798 11.6561 7.60803 11.5508 7.60938 11.4448C7.61072 11.3387 7.63333 11.234 7.67587 11.1368C7.7184 11.0397 7.78 10.952 7.85701 10.8791L8.63101 10.1011H0.26001C0.414905 11.8906 1.08727 13.5964 2.19507 15.0104C3.30288 16.4243 4.79824 17.4853 6.49874 18.0639C8.19924 18.6424 10.0314 18.7136 11.7716 18.2687C13.5119 17.8238 15.0851 16.882 16.2992 15.5583C17.5134 14.2346 18.3161 12.5861 18.6094 10.814C18.9026 9.04183 18.6738 7.22265 17.9508 5.57834C17.2278 3.93403 16.0419 2.53567 14.5378 1.55384C13.0336 0.572014 11.2762 0.0491637 9.48001 0.0490723Z" fill="#999999"/>
</svg>
