<svg width="13" height="13" viewBox="0 0 13 13" fill="none" xmlns="http://www.w3.org/2000/svg">
<path d="M12.1 11.6L10.311 9.81104C11.2324 8.79752 11.7208 7.46385 11.6719 6.09502C11.623 4.72618 11.0407 3.43075 10.0494 2.48555C9.05808 1.54034 7.73641 1.02033 6.3668 1.03663C4.99719 1.05293 3.68827 1.60424 2.71975 2.57277C1.75122 3.5413 1.1999 4.85022 1.1836 6.21983C1.1673 7.58944 1.68732 8.91111 2.63252 9.90241C3.57773 10.8937 4.87316 11.476 6.24199 11.5249C7.61082 11.5738 8.94449 11.0854 9.95801 10.164L11.742 11.958L12.1 11.6ZM1.72001 6.30004C1.72001 5.36493 1.9973 4.45082 2.51682 3.6733C3.03634 2.89578 3.77475 2.28978 4.63868 1.93193C5.50261 1.57408 6.45325 1.48045 7.3704 1.66288C8.28754 1.84531 9.12999 2.29561 9.79121 2.95684C10.4524 3.61806 10.9027 4.46051 11.0852 5.37765C11.2676 6.29479 11.174 7.24543 10.8161 8.10936C10.4583 8.97329 9.85226 9.7117 9.07474 10.2312C8.29723 10.7507 7.38312 11.028 6.44801 11.028C5.1951 11.028 3.99343 10.5307 3.10693 9.64536C2.22043 8.75998 1.7216 7.55894 1.72001 6.30604V6.30004Z" fill="black" stroke="black"/>
</svg>
