<svg width="19" height="16" viewBox="0 0 19 16" fill="none" xmlns="http://www.w3.org/2000/svg">
<path d="M1.94102 15.291L17.576 8.59097C17.7363 8.52082 17.8727 8.40547 17.9684 8.25904C18.0642 8.1126 18.1152 7.94143 18.1152 7.76647C18.1152 7.5915 18.0642 7.42033 17.9684 7.2739C17.8727 7.12746 17.7363 7.01211 17.576 6.94197L1.94102 0.237967C1.80569 0.178828 1.65777 0.154333 1.5106 0.166694C1.36344 0.179056 1.22167 0.227886 1.09811 0.308772C0.974548 0.389658 0.873083 0.500052 0.802881 0.629982C0.732679 0.759912 0.695952 0.905285 0.696017 1.05297L0.687017 5.18397C0.686269 5.4014 0.765058 5.61161 0.908542 5.77499C1.05203 5.93837 1.2503 6.04364 1.46602 6.07097L14.126 7.76397L1.46602 9.44697C1.24939 9.47764 1.05117 9.58566 0.907981 9.75109C0.764793 9.91652 0.686306 10.1282 0.687017 10.347L0.696017 14.477C0.696118 14.6246 0.732966 14.7698 0.803237 14.8996C0.873509 15.0294 0.974991 15.1397 1.09853 15.2204C1.22206 15.3012 1.36377 15.3499 1.51085 15.3623C1.65794 15.3746 1.80577 15.3501 1.94102 15.291Z" fill="#07A996"/>
</svg>
