<svg width="17" height="19" viewBox="0 0 17 19" fill="none" xmlns="http://www.w3.org/2000/svg">
<path fill-rule="evenodd" clip-rule="evenodd" d="M10.06 1.11607C9.55204 0.979424 9.02384 0.934053 8.50001 0.982066C7.97552 0.933815 7.44662 0.979187 6.93801 1.11607C6.50566 1.29331 6.16142 1.63503 5.98101 2.06607C5.89347 2.30905 5.85045 2.56582 5.85401 2.82407C5.8485 3.06454 5.78191 3.29966 5.66051 3.50731C5.5391 3.71496 5.36687 3.88832 5.16001 4.01107C4.94823 4.12873 4.71018 4.19107 4.46791 4.19229C4.22563 4.19351 3.98697 4.13359 3.77401 4.01807C3.55027 3.88577 3.30478 3.79435 3.04901 3.74807C2.58419 3.6872 2.11413 3.81226 1.74101 4.09607C1.3671 4.46376 1.06226 4.89562 0.841009 5.37107C0.53603 5.79756 0.310424 6.27554 0.17501 6.78207C0.144411 7.01114 0.159591 7.244 0.219672 7.46716C0.279753 7.69031 0.383538 7.89932 0.525009 8.08207C0.694265 8.27926 0.897474 8.44453 1.12501 8.57007C1.334 8.69167 1.50743 8.86599 1.62798 9.07559C1.74852 9.2852 1.81196 9.52277 1.81196 9.76457C1.81196 10.0064 1.74852 10.2439 1.62798 10.4535C1.50743 10.6631 1.334 10.8375 1.12501 10.9591C0.897499 11.0846 0.694296 11.2499 0.525009 11.4471C0.383538 11.6298 0.279753 11.8388 0.219672 12.062C0.159591 12.2851 0.144411 12.518 0.17501 12.7471C0.310035 13.2528 0.534952 13.73 0.839009 14.1561C1.06024 14.6315 1.36509 15.0634 1.73901 15.4311C2.11213 15.7149 2.58219 15.8399 3.04701 15.7791C3.30278 15.7328 3.54827 15.6414 3.77201 15.5091C3.98471 15.3923 4.22348 15.3311 4.46614 15.3313C4.7088 15.3315 4.94748 15.393 5.16001 15.5101C5.36813 15.6322 5.54164 15.8054 5.66414 16.0133C5.78663 16.2211 5.85405 16.4568 5.86001 16.6981C5.85645 16.9563 5.89947 17.2131 5.98701 17.4561C6.16752 17.887 6.51172 18.2287 6.94401 18.4061C7.45263 18.5429 7.98152 18.5883 8.50601 18.5401C9.0305 18.5883 9.55939 18.5429 10.068 18.4061C10.5003 18.2287 10.8445 17.887 11.025 17.4561C11.1126 17.2131 11.1556 16.9563 11.152 16.6981C11.158 16.4568 11.2254 16.2211 11.3479 16.0133C11.4704 15.8054 11.6439 15.6322 11.852 15.5101C12.0638 15.3924 12.3018 15.3301 12.5441 15.3288C12.7864 15.3276 13.025 15.3875 13.238 15.5031C13.4617 15.6354 13.7072 15.7268 13.963 15.7731C14.4278 15.8339 14.8979 15.7089 15.271 15.4251C15.645 15.0574 15.9498 14.6255 16.171 14.1501C16.475 13.724 16.7 13.2468 16.835 12.7411C16.8656 12.512 16.8503 12.2791 16.7903 12.056C16.7302 11.8328 16.6264 11.6238 16.485 11.4411C16.3157 11.2439 16.1125 11.0786 15.885 10.9531C15.676 10.8315 15.5026 10.6571 15.382 10.4475C15.2615 10.2379 15.1981 10.0004 15.1981 9.75857C15.1981 9.51677 15.2615 9.2792 15.382 9.06959C15.5026 8.85999 15.676 8.68567 15.885 8.56407C16.1125 8.43853 16.3158 8.27325 16.485 8.07607C16.6265 7.89332 16.7303 7.68431 16.7903 7.46116C16.8504 7.238 16.8656 7.00514 16.835 6.77607C16.6961 6.27102 16.4675 5.7951 16.16 5.37107C15.9388 4.89559 15.634 4.46373 15.26 4.09607C14.889 3.81431 14.4222 3.68936 13.96 3.74807C13.7042 3.79433 13.4587 3.88575 13.235 4.01807C13.022 4.13359 12.7834 4.19351 12.5411 4.19229C12.2988 4.19107 12.0608 4.12873 11.849 4.01107C11.6409 3.88896 11.4674 3.71577 11.3449 3.50788C11.2224 3.29999 11.155 3.06429 11.149 2.82307C11.1526 2.56482 11.1096 2.30804 11.022 2.06507C10.932 1.85136 10.8007 1.65753 10.6356 1.49468C10.4705 1.33183 10.2749 1.20317 10.06 1.11607ZM8.50001 12.3941C9.0201 12.3901 9.52737 12.2323 9.95789 11.9405C10.3884 11.6487 10.7229 11.2359 10.9192 10.7543C11.1155 10.2726 11.1648 9.74367 11.0609 9.23405C10.9571 8.72443 10.7046 8.25697 10.3355 7.89059C9.96632 7.52422 9.49696 7.27533 8.98657 7.17531C8.47617 7.07529 7.94759 7.1286 7.46746 7.32854C6.98732 7.52847 6.57712 7.86608 6.28857 8.29879C6.00001 8.73151 5.84602 9.23996 5.84601 9.76007C5.84732 10.1073 5.91701 10.4508 6.05109 10.7711C6.18518 11.0914 6.38104 11.3821 6.62748 11.6267C6.87393 11.8713 7.16614 12.065 7.48743 12.1966C7.80872 12.3283 8.15279 12.3954 8.50001 12.3941Z" fill="#999999"/>
</svg>
