<svg width="15" height="15" viewBox="0 0 15 15" fill="none" xmlns="http://www.w3.org/2000/svg">
<path d="M11.403 8.85981C11.0044 8.86286 10.6115 8.95411 10.2524 9.12701C9.89326 9.2999 9.57688 9.55016 9.32595 9.85981L5.88695 8.27281C6.04862 7.77767 6.04862 7.24395 5.88695 6.74881L9.32595 5.16381C9.7318 5.65412 10.2978 5.98529 10.9241 6.09886C11.5503 6.21243 12.1966 6.10111 12.7488 5.78454C13.3009 5.46797 13.7235 4.96651 13.9419 4.36866C14.1603 3.77083 14.1605 3.11505 13.9424 2.51709C13.7244 1.91913 13.302 1.41744 12.75 1.10057C12.198 0.783703 11.5518 0.67203 10.9255 0.785266C10.2992 0.898502 9.73299 1.22937 9.32688 1.71945C8.92077 2.20954 8.70086 2.82734 8.70595 3.46381C8.7079 3.62452 8.72362 3.78478 8.75295 3.94281L5.19295 5.57781C4.8132 5.2057 4.33204 4.95399 3.80981 4.85425C3.28758 4.7545 2.74752 4.81116 2.25736 5.01712C1.7672 5.22307 1.34875 5.56916 1.0545 6.01198C0.760242 6.4548 0.603271 6.97464 0.603271 7.50631C0.603271 8.03798 0.760242 8.55782 1.0545 9.00064C1.34875 9.44346 1.7672 9.78954 2.25736 9.9955C2.74752 10.2015 3.28758 10.2581 3.80981 10.1584C4.33204 10.0586 4.8132 9.80692 5.19295 9.43481L8.75295 11.0778C8.72362 11.2358 8.7079 11.3961 8.70595 11.5568C8.70595 12.0908 8.8643 12.6128 9.16098 13.0568C9.45766 13.5009 9.87934 13.8469 10.3727 14.0513C10.8661 14.2556 11.4089 14.3091 11.9327 14.2049C12.4564 14.1007 12.9375 13.8436 13.3151 13.466C13.6927 13.0884 13.9499 12.6073 14.0541 12.0836C14.1583 11.5598 14.1048 11.0169 13.9004 10.5236C13.6961 10.0302 13.35 9.60852 12.906 9.31184C12.462 9.01516 11.94 8.85681 11.406 8.85681L11.403 8.85981ZM11.403 2.11681C11.6698 2.11681 11.9306 2.19593 12.1524 2.34416C12.3743 2.49239 12.5472 2.70307 12.6493 2.94957C12.7514 3.19607 12.7781 3.4673 12.726 3.72899C12.674 3.99067 12.5455 4.23103 12.3568 4.4197C12.1682 4.60836 11.9278 4.73684 11.6661 4.78889C11.4044 4.84094 11.1332 4.81422 10.8867 4.71212C10.6402 4.61002 10.4295 4.43711 10.2813 4.21527C10.1331 3.99343 10.054 3.73262 10.054 3.46581C10.0538 3.28857 10.0886 3.11305 10.1564 2.94926C10.2241 2.78548 10.3234 2.63665 10.4487 2.51127C10.574 2.3859 10.7227 2.28645 10.8865 2.21859C11.0502 2.15073 11.2257 2.11681 11.403 2.11681ZM3.31595 8.85981C3.04893 8.8608 2.78763 8.78252 2.56513 8.6349C2.34263 8.48727 2.16895 8.27693 2.06608 8.03052C1.96321 7.78411 1.93578 7.51272 1.98726 7.25071C2.03875 6.9887 2.16683 6.74786 2.35529 6.5587C2.54375 6.36954 2.78411 6.24056 3.04593 6.18811C3.30775 6.13565 3.57924 6.16207 3.82603 6.26402C4.07282 6.36598 4.2838 6.53888 4.43225 6.76083C4.5807 6.98278 4.65995 7.24379 4.65995 7.51081C4.65995 7.86772 4.51851 8.21009 4.26661 8.46293C4.0147 8.71578 3.67286 8.85849 3.31595 8.85981ZM11.408 12.9058C11.1411 12.9058 10.8803 12.8267 10.6585 12.6785C10.4366 12.5302 10.2637 12.3195 10.1616 12.073C10.0595 11.8266 10.0328 11.5553 10.0849 11.2936C10.1369 11.032 10.2654 10.7916 10.4541 10.6029C10.6427 10.4143 10.8831 10.2858 11.1448 10.2337C11.4065 10.1817 11.6777 10.2084 11.9242 10.3105C12.1707 10.4126 12.3814 10.5855 12.5296 10.8073C12.6778 11.0292 12.757 11.29 12.757 11.5568C12.757 11.7344 12.7219 11.9102 12.6538 12.0742C12.5857 12.2382 12.4859 12.3871 12.3601 12.5125C12.2343 12.6378 12.085 12.7371 11.9207 12.8046C11.7565 12.8721 11.5805 12.9065 11.403 12.9058H11.408Z" fill="white"/>
</svg>
