<svg width="13" height="13" viewBox="0 0 13 13" fill="none" xmlns="http://www.w3.org/2000/svg">
<path d="M0.284003 5.78305L2.626 7.93005L1.976 10.922C1.93472 11.1051 1.94989 11.2963 2.01951 11.4706C2.08914 11.6448 2.20995 11.7939 2.366 11.898C2.50661 12.03 2.69322 12.1018 2.886 12.098C3.01935 12.1083 3.15319 12.086 3.276 12.033C3.28469 12.0326 3.29318 12.0303 3.30097 12.0264C3.30875 12.0225 3.31567 12.0171 3.32128 12.0105C3.3269 12.0038 3.3311 11.9961 3.33363 11.9878C3.33616 11.9794 3.33697 11.9707 3.336 11.962L6.003 10.462L8.67 11.962C8.67858 11.9619 8.68709 11.9635 8.69504 11.9667C8.70298 11.9699 8.7102 11.9747 8.71627 11.9808C8.72233 11.9868 8.72711 11.9941 8.73033 12.002C8.73355 12.01 8.73514 12.0185 8.735 12.027C8.89033 12.098 9.06084 12.1291 9.23121 12.1178C9.40158 12.1065 9.56645 12.0529 9.711 11.962C9.86706 11.8579 9.98787 11.7088 10.0575 11.5346C10.1271 11.3603 10.1423 11.1691 10.101 10.986L9.451 7.99405C9.81625 7.68875 10.1638 7.36288 10.492 7.01805L11.736 5.91205L11.801 5.84705C11.9257 5.72149 12.0111 5.56226 12.0466 5.38889C12.0822 5.21551 12.0663 5.03554 12.001 4.87105C11.9401 4.70319 11.8357 4.55454 11.6985 4.44032C11.5613 4.3261 11.3961 4.25043 11.22 4.22105H11.155L8.098 3.89605L6.862 1.09605C6.86214 1.08748 6.86055 1.07896 6.85733 1.07101C6.85411 1.06307 6.84933 1.05585 6.84327 1.04979C6.8372 1.04372 6.82998 1.03894 6.82204 1.03572C6.81409 1.0325 6.80558 1.03091 6.797 1.03105C6.78367 0.85033 6.70077 0.681827 6.56574 0.560975C6.43072 0.440124 6.25409 0.376344 6.073 0.383048C5.89926 0.389998 5.73021 0.441468 5.58207 0.532523C5.43393 0.623578 5.31167 0.751165 5.227 0.903048C5.22714 0.911621 5.22555 0.920134 5.22233 0.928081C5.21911 0.936028 5.21433 0.943248 5.20827 0.949311C5.2022 0.955374 5.19498 0.960157 5.18704 0.963375C5.17909 0.966594 5.17058 0.968183 5.162 0.968048L3.926 3.76605L0.869003 4.09105H0.804003C0.631799 4.13015 0.47128 4.20942 0.33555 4.32238C0.199819 4.43535 0.0927237 4.57881 0.0230034 4.74105C-0.0199604 4.92295 -0.0186822 5.1125 0.0267308 5.2938C0.0721438 5.47511 0.160367 5.64288 0.284003 5.78305Z" fill="#FDD61A"/>
</svg>
