<svg width="18" height="16" viewBox="0 0 18 16" fill="none" xmlns="http://www.w3.org/2000/svg">
<path d="M2.932 2.36508H15.974C16.2158 2.35715 16.445 2.25554 16.6132 2.08172C16.7814 1.90789 16.8755 1.67547 16.8755 1.43358C16.8755 1.19168 16.7814 0.959259 16.6132 0.785434C16.445 0.611609 16.2158 0.509998 15.974 0.502075H2.932C2.69023 0.509998 2.46102 0.611609 2.29279 0.785434C2.12457 0.959259 2.03052 1.19168 2.03052 1.43358C2.03052 1.67547 2.12457 1.90789 2.29279 2.08172C2.46102 2.25554 2.69023 2.35715 2.932 2.36508ZM17.055 4.04208C17.0123 3.83156 16.898 3.64233 16.7315 3.50652C16.5651 3.37071 16.3568 3.29671 16.142 3.29708H2.764C2.54919 3.29671 2.34088 3.37071 2.17445 3.50652C2.00802 3.64233 1.89373 3.83156 1.851 4.04208L0.919998 8.70208C0.893179 8.83736 0.896587 8.9769 0.929979 9.11071C0.963371 9.24453 1.02592 9.36931 1.11316 9.47613C1.20039 9.58295 1.31016 9.66918 1.4346 9.72863C1.55904 9.78809 1.69508 9.81932 1.833 9.82008H2.001V14.4781C2.00153 14.7251 2.09989 14.9618 2.27456 15.1365C2.44923 15.3112 2.68598 15.4095 2.933 15.4101H10.381C10.628 15.4095 10.8648 15.3112 11.0394 15.1365C11.2141 14.9618 11.3125 14.7251 11.313 14.4781V9.81808H15.039V14.4761C15.0349 14.601 15.056 14.7254 15.1009 14.842C15.1459 14.9586 15.2139 15.0649 15.3008 15.1547C15.3877 15.2445 15.4917 15.3159 15.6068 15.3647C15.7219 15.4135 15.8455 15.4386 15.9705 15.4386C16.0955 15.4386 16.2191 15.4135 16.3342 15.3647C16.4493 15.3159 16.5533 15.2445 16.6402 15.1547C16.7271 15.0649 16.7951 14.9586 16.8401 14.842C16.885 14.7254 16.9061 14.601 16.902 14.4761V9.81808H17.07C17.2079 9.81732 17.344 9.78609 17.4684 9.72663C17.5928 9.66718 17.7026 9.58095 17.7898 9.47413C17.8771 9.36731 17.9396 9.24253 17.973 9.10871C18.0064 8.9749 18.0098 8.83536 17.983 8.70008L17.055 4.04208ZM9.455 13.5421H3.864V9.81808H9.454L9.455 13.5421Z" fill="#999999"/>
</svg>
