<svg width="18" height="19" viewBox="0 0 18 19" fill="none" xmlns="http://www.w3.org/2000/svg">
<path d="M5.83897 2.32402H5.66397C5.7103 2.32376 5.75467 2.30524 5.78743 2.27248C5.82019 2.23971 5.83871 2.19536 5.83897 2.14902V2.32402H12.49V2.14902C12.4902 2.19536 12.5088 2.23971 12.5415 2.27248C12.5743 2.30524 12.6186 2.32376 12.665 2.32402H12.49V3.89902H14.064V2.14902C14.064 1.96517 14.0278 1.78312 13.9574 1.61327C13.8871 1.44341 13.7839 1.28907 13.6539 1.15907C13.5239 1.02907 13.3696 0.925947 13.1997 0.855591C13.0299 0.785234 12.8478 0.749023 12.664 0.749023H5.66397C5.29267 0.749023 4.93658 0.896522 4.67403 1.15907C4.41148 1.42162 4.26398 1.77772 4.26398 2.14902V3.89902H5.83897V2.32402ZM16.864 3.89902H1.46397C1.37205 3.89902 1.28103 3.91713 1.19611 3.95231C1.11118 3.98749 1.03401 4.03905 0.969009 4.10405C0.904008 4.16905 0.852439 4.24622 0.817261 4.33115C0.782082 4.41607 0.763977 4.5071 0.763977 4.59902V5.29903C0.76424 5.34536 0.782759 5.38972 0.815521 5.42248C0.848283 5.45524 0.892648 5.47376 0.93898 5.47402H2.26398L2.80397 16.916C2.8207 17.276 2.97555 17.6156 3.23631 17.8642C3.49707 18.1129 3.84367 18.2514 4.20398 18.251H14.136C14.4963 18.2514 14.8429 18.1129 15.1036 17.8642C15.3644 17.6156 15.5193 17.276 15.536 16.916L16.076 5.47402H17.397C17.4433 5.47376 17.4877 5.45524 17.5204 5.42248C17.5532 5.38972 17.5717 5.34536 17.572 5.29903V4.59902C17.572 4.50642 17.5536 4.41474 17.5179 4.32928C17.4823 4.24383 17.43 4.1663 17.3641 4.1012C17.2983 4.03609 17.2202 3.9847 17.1343 3.95C17.0485 3.91529 16.9566 3.89797 16.864 3.89902ZM13.964 16.675H4.36398L3.83498 5.47502H14.489L13.964 16.675Z" fill="#E98371"/>
<path d="M3.02399 4.81014L3.74301 17.4352H14.563L15.18 4.61914L3.02399 4.81014Z" fill="#E98371"/>
</svg>
