<svg width="16" height="17" viewBox="0 0 16 17" fill="none" xmlns="http://www.w3.org/2000/svg">
<path d="M13.903 1.5841L9.95399 0.338097C8.69334 -0.0599647 7.34065 -0.0599647 6.07999 0.338097L2.131 1.5841C1.72896 1.71102 1.37783 1.96278 1.1286 2.30283C0.879364 2.64287 0.744995 3.0535 0.744995 3.4751V10.3301C0.745044 10.9516 0.891136 11.5643 1.17149 12.1189C1.45184 12.6736 1.85861 13.1545 2.35899 13.5231L6.22699 16.3731C6.74554 16.7553 7.37281 16.9615 8.01699 16.9615C8.66117 16.9615 9.28844 16.7553 9.807 16.3731L13.675 13.5231C14.1754 13.1545 14.5821 12.6736 14.8625 12.1189C15.1429 11.5643 15.2889 10.9516 15.289 10.3301V3.4751C15.289 3.0535 15.1546 2.64287 14.9054 2.30283C14.6562 1.96278 14.305 1.71102 13.903 1.5841ZM11.055 7.5651L7.78299 10.8381C7.59708 11.0232 7.34538 11.1272 7.083 11.1272C6.82061 11.1272 6.56891 11.0232 6.383 10.8381L4.98299 9.4381C4.79784 9.25218 4.69389 9.00048 4.69389 8.7381C4.69389 8.47571 4.79784 8.22401 4.98299 8.0381C5.16891 7.85295 5.42061 7.74899 5.68299 7.74899C5.94538 7.74899 6.19708 7.85295 6.383 8.0381L7.083 8.7381L9.654 6.1671C9.83991 5.98195 10.0916 5.87799 10.354 5.87799C10.6164 5.87799 10.8681 5.98195 11.054 6.1671C11.2387 6.3528 11.3424 6.60399 11.3426 6.86589C11.3428 7.12779 11.2394 7.37913 11.055 7.5651Z" fill="url(#paint0_linear_1_3152)"/>
<defs>
<linearGradient id="paint0_linear_1_3152" x1="3.24656" y1="14.6601" x2="14.9039" y2="5.12612" gradientUnits="userSpaceOnUse">
<stop stop-color="#00A996"/>
<stop offset="1" stop-color="#A5B28A"/>
</linearGradient>
</defs>
</svg>
