<svg width="17" height="17" viewBox="0 0 17 17" fill="none" xmlns="http://www.w3.org/2000/svg">
<path opacity="0.8" d="M9.44201 0.745975L9.41701 0.803975L6.99601 6.42298H4.61401C4.0639 6.42012 3.51915 6.53112 3.01401 6.74897L4.47401 3.25897L4.50701 3.18397L4.55701 3.04997C4.57621 2.99864 4.59859 2.94854 4.62401 2.89998C5.71401 0.369975 6.95401 -0.206025 9.44201 0.745975Z" fill="#CECECE"/>
<path d="M13.944 6.58905C13.5613 6.47916 13.1651 6.42395 12.767 6.42505H6.99799L9.41899 0.806047L9.44399 0.748047C9.56099 0.790047 9.68599 0.848047 9.81099 0.890047L11.656 1.66605C12.4859 1.95231 13.2356 2.43223 13.843 3.06605C13.918 3.16605 13.985 3.25805 14.052 3.36605C14.1261 3.47625 14.1824 3.59739 14.219 3.72505C14.2514 3.79461 14.2765 3.86733 14.294 3.94205C14.4815 4.83852 14.358 5.77212 13.944 6.58905Z" fill="#CECECE"/>
<path d="M16.84 10.4969V12.1249C16.84 12.2919 16.832 12.4589 16.823 12.6179C16.664 15.5399 15.036 17.0099 11.947 17.0099H5.436C5.23762 17.009 5.03952 16.995 4.843 16.9679C4.27857 16.9901 3.71566 16.8954 3.18956 16.6897C2.66345 16.4841 2.18552 16.172 1.78573 15.7729C1.38593 15.3739 1.07291 14.8966 0.866287 14.3708C0.659663 13.8451 0.563899 13.2824 0.584999 12.7179C0.558542 12.5213 0.544514 12.3233 0.542999 12.1249V10.4969C0.543921 9.6989 0.778508 8.91862 1.2178 8.25239C1.6571 7.58616 2.28187 7.06315 3.015 6.74793C3.52014 6.53007 4.06489 6.41908 4.615 6.42193H12.764C13.1622 6.42181 13.5585 6.47803 13.941 6.58893C14.7789 6.84415 15.5128 7.36157 16.0347 8.06507C16.5565 8.76857 16.8388 9.621 16.84 10.4969Z" fill="#999999"/>
<path opacity="0.6" d="M4.476 3.25903L3.015 6.74903C2.28203 7.06419 1.65736 7.58704 1.21808 8.25308C0.778795 8.91911 0.544117 9.69918 0.543 10.497V8.05103C0.542466 6.92047 0.934253 5.82475 1.65151 4.95084C2.36876 4.07693 3.36704 3.47899 4.476 3.25903Z" fill="#292D32"/>
<path opacity="0.6" d="M16.839 8.05107V10.4971C16.8375 9.62119 16.555 8.76889 16.033 8.06558C15.5109 7.36227 14.7769 6.84507 13.939 6.59007C14.3534 5.77326 14.4772 4.83966 14.29 3.94307C14.2725 3.86836 14.2474 3.79564 14.215 3.72607C15.0061 4.13803 15.6691 4.75909 16.1317 5.52167C16.5944 6.28425 16.839 7.15912 16.839 8.05107Z" fill="#292D32"/>
</svg>
